<svg  viewBox="0 0 107 88" fill="none" xmlns="http://www.w3.org/2000/svg">
<path d="M58.0965 8.34745C69.2264 -2.78227 87.2713 -2.78224 98.4012 8.34745C109.531 19.4774 109.531 37.5233 98.4012 48.6531L64.1072 82.9471C61.1463 85.908 57.2545 87.371 53.3738 87.3387C49.4936 87.3708 45.603 85.9075 42.6424 82.9471L8.34745 48.6531C-2.78249 37.5232 -2.78248 19.4774 8.34745 8.34745C19.4774 -2.78248 37.5232 -2.78249 48.6531 8.34745L53.3738 13.0691L58.0965 8.34745ZM95.1814 20.8328C91.2359 16.3068 84.4188 15.6854 79.7068 19.5223L50.6101 43.2156L41.3514 36.0955C36.533 32.3899 29.7332 33.2 25.9129 37.8348L25.5525 38.2947C21.837 43.3007 22.8273 50.4203 27.7693 54.2215L43.4666 66.2947C43.9554 66.6706 44.4615 66.9916 44.9715 67.2684C48.9121 69.7344 54.1204 69.5571 57.9422 66.4451L93.7801 37.2596C98.612 33.3241 99.4052 26.1829 95.5545 21.283L95.1814 20.8328ZM91.0711 21.2283C91.1743 21.2926 91.2769 21.3583 91.3777 21.4275C91.2769 21.3583 91.1743 21.2925 91.0711 21.2283ZM90.7342 21.0301C90.8168 21.0762 90.899 21.1235 90.9803 21.1726C90.8989 21.1235 90.8168 21.0762 90.7342 21.0301ZM90.3308 20.8182C90.441 20.8717 90.5499 20.9284 90.658 20.9871L90.3308 20.8182Z" fill="url(#paint0_linear_230_56)"/>
<path d="M81.6016 21.8496C85.1652 18.9476 90.3565 19.5243 93.1964 23.1377C96.0358 26.751 95.4493 32.0326 91.8858 34.9345L56.0469 64.1191C52.4835 67.021 47.2931 66.4449 44.4532 62.832C41.6134 59.2187 42.1992 53.9362 45.7628 51.0341L81.6016 21.8496Z" fill="#2EB293"/>
<rect width="36.4539" height="16.6505" rx="8.32526" transform="matrix(0.792669 0.609653 -0.596024 0.802967 32.9241 33.3986)" fill="#4FACF7"/>
<defs>
<linearGradient id="paint0_linear_230_56" x1="24.4998" y1="23.4998" x2="129.5" y2="80.9998" gradientUnits="userSpaceOnUse">
<stop stop-color="#2EB293"/>
<stop offset="1" stop-color="#4FACF7"/>
</linearGradient>
</defs>
</svg>
