<svg width="30" height="25" viewBox="0 0 37 31" fill="none" xmlns="http://www.w3.org/2000/svg">
<path d="M27.7529 0.5C29.2495 0.50003 30.4658 1.70952 30.4658 3.20508C30.4658 3.76572 30.2916 4.28517 29.999 4.7168L34.4355 10.4023C35.5946 10.5247 36.4999 11.5023 36.5 12.6934C36.5 13.8955 35.5777 14.8788 34.4033 14.9863L21.2012 27.5713C21.2073 27.6451 21.2129 27.7195 21.2129 27.7949C21.2129 29.2905 19.9966 30.5 18.5 30.5C17.0034 30.5 15.7871 29.2905 15.7871 27.7949C15.7871 27.64 15.8019 27.488 15.8271 27.3398L3.18652 14.9658C3.0639 14.9859 2.93843 14.998 2.81055 14.998C1.5362 14.998 0.5 13.9675 0.5 12.6934C0.500097 11.492 1.42123 10.5078 2.59473 10.3994L7.01367 4.7373C6.71271 4.30175 6.53418 3.77431 6.53418 3.20508C6.53418 1.70951 7.75056 0.50003 9.24707 0.5C10.7436 0.5 11.96 1.70949 11.96 3.20508C11.96 3.47289 11.9197 3.73177 11.8467 3.97656L16.9424 8.02539C17.2824 7.82925 17.6772 7.71681 18.0977 7.7168C18.6989 7.7168 19.2464 7.94615 19.6572 8.32129L25.1699 4.03125C25.0861 3.77051 25.04 3.49289 25.04 3.20508C25.04 1.7095 26.2563 0.5 27.7529 0.5ZM10.4072 5.64844C10.055 5.81503 9.66196 5.91016 9.24707 5.91016C9.13409 5.91015 9.02262 5.90312 8.91309 5.88965L4.66992 11.3262C4.95277 11.7083 5.12105 12.1813 5.12109 12.6934C5.12109 13.0124 5.05343 13.3161 4.93555 13.5928L17.085 25.4863C17.4969 25.2348 17.9819 25.0898 18.5 25.0898C19.0883 25.0898 19.6326 25.2782 20.0771 25.5957L32.2715 13.9736C32.0254 13.6074 31.8789 13.1677 31.8789 12.6934C31.8789 12.1728 32.0523 11.692 32.3438 11.3066L28.1133 5.88477C27.9952 5.90048 27.8751 5.91015 27.7529 5.91016C27.3598 5.91016 26.9854 5.82636 26.6475 5.67578L20.3369 10.585C20.0841 11.5856 19.1776 12.3252 18.0977 12.3252C16.8233 12.3252 15.7871 11.2946 15.7871 10.0205C15.7871 9.98846 15.7897 9.9566 15.791 9.9248L10.4072 5.64844ZM26.1436 10.9238C27.3439 10.9238 28.3203 11.8944 28.3203 13.0947C28.3202 14.295 27.3438 15.2646 26.1436 15.2646C25.9695 15.2646 25.8008 15.2418 25.6387 15.2031L20.6572 19.3662C20.6689 19.4569 20.6758 19.549 20.6758 19.6426C20.6758 20.843 19.7003 21.8135 18.5 21.8135C17.2997 21.8135 16.3242 20.843 16.3242 19.6426C16.3242 19.5814 16.327 19.5209 16.332 19.4609L13.7891 17.4326C13.5824 17.4977 13.3635 17.5371 13.1357 17.5371C11.9356 17.537 10.96 16.5665 10.96 15.3662C10.96 14.1659 11.9356 13.1964 13.1357 13.1963C14.336 13.1963 15.3124 14.1659 15.3125 15.3662C15.3125 15.6637 15.2504 15.947 15.1416 16.2051L17.2363 17.876C17.5925 17.6222 18.0289 17.4727 18.5 17.4727C18.9388 17.4727 19.3468 17.6034 19.6885 17.8262L24.1953 14.0596C24.0503 13.7688 23.9678 13.4413 23.9678 13.0947C23.9678 11.8944 24.9433 10.9239 26.1436 10.9238Z" />
</svg>
